<svg id="visual" viewBox="0 0 900 600" width="900" height="600" xmlns="http://www.w3.org/2000/svg" xmlns:xlink="http://www.w3.org/1999/xlink" version="1.1"><path d="M0 31L82 31L82 61L164 61L164 31L245 31L245 61L327 61L327 61L409 61L409 31L491 31L491 73L573 73L573 43L655 43L655 73L736 73L736 25L818 25L818 37L900 37L900 31L900 0L900 0L818 0L818 0L736 0L736 0L655 0L655 0L573 0L573 0L491 0L491 0L409 0L409 0L327 0L327 0L245 0L245 0L164 0L164 0L82 0L82 0L0 0Z" fill="#865dff"></path><path d="M0 67L82 67L82 127L164 127L164 91L245 91L245 121L327 121L327 85L409 85L409 97L491 97L491 97L573 97L573 73L655 73L655 121L736 121L736 91L818 91L818 85L900 85L900 85L900 29L900 35L818 35L818 23L736 23L736 71L655 71L655 41L573 41L573 71L491 71L491 29L409 29L409 59L327 59L327 59L245 59L245 29L164 29L164 59L82 59L82 29L0 29Z" fill="#6d53d8"></path><path d="M0 151L82 151L82 151L164 151L164 169L245 169L245 175L327 175L327 121L409 121L409 127L491 127L491 133L573 133L573 109L655 109L655 199L736 199L736 145L818 145L818 163L900 163L900 115L900 83L900 83L818 83L818 89L736 89L736 119L655 119L655 71L573 71L573 95L491 95L491 95L409 95L409 83L327 83L327 119L245 119L245 89L164 89L164 125L82 125L82 65L0 65Z" fill="#5748b2"></path><path d="M0 265L82 265L82 313L164 313L164 235L245 235L245 301L327 301L327 355L409 355L409 265L491 265L491 253L573 253L573 307L655 307L655 277L736 277L736 259L818 259L818 355L900 355L900 355L900 113L900 161L818 161L818 143L736 143L736 197L655 197L655 107L573 107L573 131L491 131L491 125L409 125L409 119L327 119L327 173L245 173L245 167L164 167L164 149L82 149L82 149L0 149Z" fill="#443c8d"></path><path d="M0 397L82 397L82 427L164 427L164 349L245 349L245 421L327 421L327 427L409 427L409 325L491 325L491 361L573 361L573 421L655 421L655 373L736 373L736 373L818 373L818 469L900 469L900 463L900 353L900 353L818 353L818 257L736 257L736 275L655 275L655 305L573 305L573 251L491 251L491 263L409 263L409 353L327 353L327 299L245 299L245 233L164 233L164 311L82 311L82 263L0 263Z" fill="#343069"></path><path d="M0 445L82 445L82 523L164 523L164 445L245 445L245 499L327 499L327 463L409 463L409 427L491 427L491 463L573 463L573 493L655 493L655 445L736 445L736 469L818 469L818 541L900 541L900 505L900 461L900 467L818 467L818 371L736 371L736 371L655 371L655 419L573 419L573 359L491 359L491 323L409 323L409 425L327 425L327 419L245 419L245 347L164 347L164 425L82 425L82 395L0 395Z" fill="#262446"></path><path d="M0 601L82 601L82 601L164 601L164 601L245 601L245 601L327 601L327 601L409 601L409 601L491 601L491 601L573 601L573 601L655 601L655 601L736 601L736 601L818 601L818 601L900 601L900 601L900 503L900 539L818 539L818 467L736 467L736 443L655 443L655 491L573 491L573 461L491 461L491 425L409 425L409 461L327 461L327 497L245 497L245 443L164 443L164 521L82 521L82 443L0 443Z" fill="#191825"></path></svg>